<svg width="31" height="25" viewBox="0 0 31 25" fill="none" xmlns="http://www.w3.org/2000/svg">
<path d="M17.1472 3.06848C16.5571 2.48704 16.5501 1.53732 17.1315 0.947216C17.713 0.357112 18.6627 0.350085 19.2528 0.931521L17.1472 3.06848ZM29 12.6414L30.0528 11.5729C30.3389 11.8548 30.5 12.2397 30.5 12.6414C30.5 13.043 30.3389 13.4279 30.0528 13.7098L29 12.6414ZM19.2528 24.3512C18.6627 24.9326 17.713 24.9256 17.1315 24.3355C16.5501 23.7454 16.5571 22.7957 17.1472 22.2142L19.2528 24.3512ZM2 14.1414C1.17157 14.1414 0.5 13.4698 0.5 12.6414C0.5 11.8129 1.17157 11.1414 2 11.1414V14.1414ZM19.2528 0.931521L30.0528 11.5729L27.9472 13.7098L17.1472 3.06848L19.2528 0.931521ZM30.0528 13.7098L19.2528 24.3512L17.1472 22.2142L27.9472 11.5729L30.0528 13.7098ZM29 14.1414H2V11.1414H29V14.1414Z" fill="#404040"/>
</svg>
