<svg width="204" height="45" viewBox="0 0 204 45" fill="none" xmlns="http://www.w3.org/2000/svg">
<g clip-path="url(#clip0_2_48)">
<path d="M16.834 11.1156C19.7339 12.412 22.0277 14.7773 23.2419 17.7232C24.1585 20.0114 24.4022 22.5158 23.9441 24.939C23.4861 27.3622 22.3455 29.6025 20.6577 31.3941C19.5715 32.5353 18.2722 33.4505 16.834 34.0876C15.3503 34.739 13.7465 35.069 12.1273 35.0559C10.5141 35.0617 8.91706 34.732 7.43684 34.0876C5.98136 33.4516 4.6633 32.5367 3.55644 31.3941C2.44048 30.2374 1.55263 28.8789 0.939817 27.3905C0.313016 25.857 -0.00632875 24.2144 9.50195e-05 22.5568V0.11377H4.7959V10.1147H12.0868C13.722 10.1066 15.3401 10.4478 16.834 11.1156ZM12.1192 30.1409C13.0916 30.1498 14.0549 29.9529 14.9465 29.5631C16.2887 28.9668 17.4276 27.9885 18.2223 26.7491C19.0171 25.5097 19.4328 24.0635 19.4182 22.5894C19.424 21.5882 19.2341 20.5957 18.8593 19.668C18.1351 17.8732 16.7474 16.4297 14.987 15.64C14.0959 15.2476 13.1326 15.048 12.1597 15.0541H4.7959V22.5568C4.78818 23.5642 4.98098 24.563 5.36298 25.4944C5.90172 26.8532 6.83317 28.0189 8.03732 28.8412C9.24147 29.6636 10.6632 30.1049 12.1192 30.1084V30.1409Z" fill="white"/>
<path d="M38.7798 10.0009C40.4003 9.99196 42.0043 10.3275 43.4865 10.9856C45.6912 11.9683 47.5616 13.5774 48.8672 15.6147C50.1728 17.6519 50.8565 20.0284 50.8341 22.4512V34.9422H38.7798C37.1661 34.952 35.5683 34.6221 34.0893 33.9738C31.1477 32.672 28.8242 30.2738 27.6085 27.2848C26.3525 24.1774 26.3525 20.7005 27.6085 17.5931C28.8308 14.6276 31.1556 12.2573 34.0893 10.9856C35.5685 10.336 37.1654 10.0007 38.7798 10.0009ZM46.0707 30.0353V22.4512C46.0787 20.9868 45.6635 19.5515 44.8755 18.3195C44.0875 17.0874 42.9606 16.1115 41.6314 15.51C40.7389 15.1221 39.7765 14.9227 38.8041 14.924C37.8354 14.9248 36.8765 15.1196 35.9835 15.4968C35.0905 15.874 34.2814 16.4262 33.6032 17.1212C32.9411 17.813 32.4112 18.6212 32.0397 19.5054C31.6623 20.4326 31.4697 21.4251 31.4727 22.4268C31.4555 23.4045 31.6307 24.376 31.9881 25.2856C32.3455 26.1951 32.8782 27.0249 33.5556 27.7272C34.2329 28.4295 35.0417 28.9906 35.9354 29.3783C36.8291 29.766 37.7902 29.9727 38.7636 29.9864H38.8446L46.0707 30.0353Z" fill="white"/>
<path d="M65.3836 10.0009C67.004 9.99267 68.6079 10.3282 70.0903 10.9855C72.2941 11.9727 74.1635 13.5838 75.4699 15.6216C76.7764 17.6594 77.4631 20.0355 77.446 22.4593V34.9421H65.3836C63.7699 34.952 62.1721 34.6221 60.6931 33.9738C59.2412 33.3357 57.9262 32.421 56.8208 31.2803C55.7032 30.128 54.8151 28.7718 54.2042 27.2848C52.9482 24.1774 52.9482 20.7005 54.2042 17.5931C54.8112 16.1184 55.7002 14.7775 56.8208 13.6464C57.9312 12.5199 59.2455 11.6168 60.6931 10.9855C62.1723 10.3359 63.7692 10.0007 65.3836 10.0009ZM72.6745 30.0352V22.4511C72.6832 21.4489 72.4903 20.4553 72.1074 19.5298C71.744 18.6408 71.2163 17.8291 70.552 17.1374C69.8905 16.4474 69.1006 15.8945 68.2271 15.5099C67.3383 15.1201 66.3776 14.9232 65.4079 14.9322C64.4393 14.9291 63.48 15.1213 62.5867 15.4973C61.6934 15.8733 60.8842 16.4255 60.2071 17.1211C58.8344 18.5513 58.0674 20.4605 58.0674 22.4471C58.0674 24.4337 58.8344 26.3428 60.2071 27.773C60.8829 28.4709 61.6917 29.0251 62.5852 29.4025C63.4787 29.78 64.4386 29.973 65.4079 29.9701L72.6745 30.0352Z" fill="white"/>
<path d="M104.155 0V22.4511C104.161 24.1088 103.842 25.7514 103.215 27.2848C102.608 28.7681 101.729 30.1235 100.623 31.2803C98.9541 33.0354 96.7897 34.2345 94.4215 34.7161C92.0533 35.1976 89.595 34.9386 87.3778 33.9738C84.4363 32.672 82.1128 30.2738 80.897 27.2848C79.6496 24.1757 79.6496 20.7022 80.897 17.5931C82.12 14.6281 84.4446 12.258 87.3778 10.9855C88.8569 10.3372 90.4547 10.0073 92.0683 10.0172H99.3593V0H104.155ZM92.0764 30.0027C93.0519 30.008 94.0177 29.8084 94.9118 29.4168C95.7789 29.0252 96.5649 28.4731 97.2287 27.7893C98.599 26.3474 99.3597 24.4282 99.3512 22.4349V14.9322H92.0602C91.0801 14.9239 90.109 15.1207 89.2087 15.5099C88.3286 15.8911 87.5327 16.4443 86.8675 17.1374C86.2025 17.8301 85.6722 18.6415 85.304 19.5298C84.8419 20.6589 84.6576 21.8832 84.7668 23.0991C84.876 24.3149 85.2755 25.4863 85.9314 26.514C86.5872 27.5417 87.4801 28.3955 88.5343 29.0028C89.5886 29.6101 90.773 29.9531 91.9873 30.0027H92.0764Z" fill="white"/>
<path d="M138.293 10.0009C139.917 9.987 141.527 10.3169 143.016 10.9693C144.452 11.6069 145.755 12.5126 146.856 13.6383C148 14.7976 148.903 16.1736 149.514 17.6865C150.124 19.1993 150.429 20.8189 150.412 22.4512V34.9422H145.624V22.4512C145.633 21.449 145.44 20.4554 145.057 19.5299C144.691 18.6405 144.16 17.8288 143.494 17.1375C142.817 16.441 142.008 15.8883 141.115 15.5123C140.221 15.1363 139.261 14.9445 138.293 14.9485C137.323 14.9405 136.363 15.1373 135.474 15.5262C133.71 16.302 132.318 17.7385 131.593 19.5299C131.214 20.4566 131.022 21.4494 131.026 22.4512V34.9422H126.23V22.4512C126.249 20.4679 125.486 18.5577 124.108 17.1375C123.444 16.4429 122.648 15.8894 121.767 15.51C120.863 15.1231 119.89 14.9237 118.907 14.924C117.937 14.9189 116.976 15.1185 116.088 15.51C115.215 15.8917 114.427 16.445 113.771 17.1375C113.106 17.8272 112.576 18.6359 112.207 19.5217C111.826 20.4477 111.633 21.441 111.64 22.443V34.9584H106.845V22.4512C106.826 20.025 107.515 17.6464 108.826 15.609C110.138 13.5715 112.014 11.9643 114.225 10.9856C115.701 10.3381 117.296 10.0083 118.907 10.0172C120.834 9.9914 122.735 10.4591 124.432 11.3761C126.086 12.2707 127.513 13.5346 128.604 15.0705C129.698 13.5288 131.135 12.264 132.8 11.3761C134.489 10.4673 136.377 9.99468 138.293 10.0009Z" fill="white"/>
<path d="M165.277 10.0009C166.899 9.99106 168.504 10.3209 169.992 10.9693C172.197 11.9565 174.067 13.569 175.372 15.6087C176.677 17.6484 177.361 20.0266 177.34 22.4512V34.9422H165.277C163.666 34.9511 162.071 34.6213 160.595 33.9738C159.14 33.3359 157.823 32.4213 156.714 31.2804C155.594 30.1284 154.704 28.7723 154.09 27.2848C152.826 24.179 152.826 20.699 154.09 17.5932C154.694 16.1191 155.58 14.7783 156.698 13.6465C157.817 12.5194 159.14 11.6164 160.595 10.9856C162.071 10.336 163.665 10.0007 165.277 10.0009ZM172.568 30.0353V22.4512C172.577 21.449 172.384 20.4554 172.001 19.5299C171.635 18.6405 171.104 17.8288 170.438 17.1375C169.778 16.4483 168.991 15.8955 168.121 15.51C167.229 15.1202 166.266 14.9233 165.293 14.9322C164.326 14.9285 163.368 15.1203 162.475 15.4964C161.583 15.8725 160.776 16.425 160.101 17.1212C159.431 17.8104 158.9 18.6227 158.537 19.5136C158.158 20.4403 157.966 21.4331 157.97 22.4349C157.966 23.4419 158.159 24.44 158.537 25.3726C158.895 26.2811 159.426 27.1104 160.101 27.8138C160.775 28.5111 161.583 29.0649 162.475 29.4423C163.367 29.8198 164.325 30.0131 165.293 30.0109L172.568 30.0353Z" fill="white"/>
<path d="M204 10.0579V32.5009C204.02 34.1764 203.697 35.8381 203.052 37.3834C202.448 38.8643 201.574 40.2192 200.476 41.3788C199.396 42.5121 198.105 43.4216 196.677 44.056C195.193 44.7082 193.589 45.0382 191.97 45.0244H189.54V40.085H191.97C193.418 40.0789 194.832 39.6358 196.026 38.8131C197.221 37.9904 198.142 36.826 198.67 35.471C199.035 34.5334 199.212 33.5321 199.188 32.5253V32.4683C198.178 33.2836 197.039 33.9219 195.818 34.3562C193.035 35.3336 189.988 35.2262 187.28 34.0551C184.335 32.7535 182.011 30.3516 180.799 27.3581C180.162 25.8274 179.839 24.1833 179.851 22.5244V10.0579H184.647V22.5081C184.61 24.4716 185.35 26.3695 186.705 27.7853C188.06 29.2011 189.918 30.0191 191.873 30.0597H191.97C192.942 30.0679 193.905 29.871 194.797 29.4819C196.127 28.8732 197.252 27.8906 198.037 26.6529C198.822 25.4153 199.233 23.9756 199.22 22.5081V10.0579H204Z" fill="white"/>
</g>
<defs>
<clipPath id="clip0_2_48">
<rect width="204" height="45" fill="white"/>
</clipPath>
</defs>
</svg>
