<svg width="204" height="45" viewBox="0 0 204 45" fill="none" xmlns="http://www.w3.org/2000/svg">
<g clip-path="url(#clip0_75_569)">
<path d="M16.8339 11.1156C19.7338 12.412 22.0276 14.7773 23.2418 17.7232C24.1584 20.0114 24.4021 22.5158 23.944 24.939C23.4859 27.3622 22.3453 29.6025 20.6576 31.3941C19.5714 32.5353 18.2721 33.4505 16.8339 34.0876C15.3502 34.739 13.7464 35.069 12.1272 35.0559C10.5139 35.0617 8.91694 34.732 7.43671 34.0876C5.98124 33.4516 4.66318 32.5367 3.55632 31.3941C2.44036 30.2374 1.55251 28.8789 0.939695 27.3905C0.312894 25.857 -0.00645082 24.2144 -2.70508e-05 22.5568V0.11377H4.79578V10.1147H12.0867C13.7218 10.1066 15.34 10.4478 16.8339 11.1156ZM12.1191 30.1409C13.0914 30.1498 14.0548 29.9529 14.9464 29.5631C16.2886 28.9668 17.4275 27.9885 18.2222 26.7491C19.0169 25.5097 19.4327 24.0635 19.4181 22.5894C19.4239 21.5882 19.234 20.5957 18.8592 19.668C18.135 17.8732 16.7472 16.4297 14.9869 15.64C14.0958 15.2476 13.1325 15.048 12.1596 15.0541H4.79578V22.5568C4.78805 23.5642 4.98086 24.563 5.36285 25.4944C5.9016 26.8532 6.83305 28.0189 8.0372 28.8412C9.24134 29.6636 10.663 30.1049 12.1191 30.1084V30.1409Z" fill="#5630DB"/>
<path d="M38.7796 10.0009C40.4 9.99196 42.0041 10.3275 43.4862 10.9856C45.691 11.9683 47.5614 13.5774 48.867 15.6147C50.1725 17.6519 50.8563 20.0284 50.8339 22.4512V34.9422H38.7796C37.1659 34.952 35.5681 34.6221 34.0891 33.9738C31.1475 32.672 28.824 30.2738 27.6082 27.2848C26.3523 24.1774 26.3523 20.7005 27.6082 17.5931C28.8305 14.6276 31.1553 12.2573 34.0891 10.9856C35.5682 10.336 37.1652 10.0007 38.7796 10.0009ZM46.0705 30.0353V22.4512C46.0784 20.9868 45.6632 19.5515 44.8752 18.3195C44.0873 17.0874 42.9603 16.1115 41.6311 15.51C40.7386 15.1221 39.7763 14.9227 38.8039 14.924C37.8351 14.9248 36.8763 15.1196 35.9833 15.4968C35.0903 15.874 34.2811 16.4262 33.603 17.1212C32.9409 17.813 32.4109 18.6212 32.0395 19.5054C31.6621 20.4326 31.4694 21.4251 31.4724 22.4268C31.4553 23.4045 31.6304 24.376 31.9879 25.2856C32.3453 26.1951 32.878 27.0249 33.5553 27.7272C34.2327 28.4295 35.0414 28.9906 35.9351 29.3783C36.8288 29.766 37.79 29.9727 38.7634 29.9864H38.8444L46.0705 30.0353Z" fill="#5630DB"/>
<path d="M65.3834 10.0009C67.0038 9.99267 68.6076 10.3282 70.0901 10.9855C72.2938 11.9727 74.1633 13.5838 75.4697 15.6216C76.7761 17.6594 77.4628 20.0355 77.4458 22.4593V34.9421H65.3834C63.7697 34.952 62.1719 34.6221 60.6929 33.9738C59.241 33.3357 57.926 32.421 56.8206 31.2803C55.703 30.128 54.8149 28.7718 54.2039 27.2848C52.948 24.1774 52.948 20.7005 54.2039 17.5931C54.8109 16.1184 55.6999 14.7775 56.8206 13.6464C57.9309 12.5199 59.2452 11.6168 60.6929 10.9855C62.172 10.3359 63.769 10.0007 65.3834 10.0009ZM72.6743 30.0352V22.4511C72.6829 21.4489 72.49 20.4553 72.1072 19.5298C71.7438 18.6408 71.216 17.8291 70.5518 17.1374C69.8902 16.4474 69.1003 15.8945 68.2268 15.5099C67.3381 15.1201 66.3774 14.9232 65.4077 14.9322C64.4391 14.9291 63.4798 15.1213 62.5864 15.4973C61.6931 15.8733 60.8839 16.4255 60.2068 17.1211C58.8342 18.5513 58.0672 20.4605 58.0672 22.4471C58.0672 24.4337 58.8342 26.3428 60.2068 27.773C60.8827 28.4709 61.6915 29.0251 62.5849 29.4025C63.4784 29.78 64.4384 29.973 65.4077 29.9701L72.6743 30.0352Z" fill="#5630DB"/>
<path d="M104.155 0V22.4511C104.161 24.1088 103.842 25.7514 103.215 27.2848C102.608 28.7681 101.729 30.1235 100.623 31.2803C98.9538 33.0354 96.7894 34.2345 94.4212 34.7161C92.053 35.1976 89.5947 34.9386 87.3776 33.9738C84.436 32.672 82.1125 30.2738 80.8968 27.2848C79.6493 24.1757 79.6493 20.7022 80.8968 17.5931C82.1198 14.6281 84.4444 12.258 87.3776 10.9855C88.8566 10.3372 90.4544 10.0073 92.0681 10.0172H99.359V0H104.155ZM92.0762 30.0027C93.0516 30.008 94.0174 29.8084 94.9116 29.4168C95.7787 29.0252 96.5647 28.4731 97.2285 27.7893C98.5987 26.3474 99.3595 24.4282 99.3509 22.4349V14.9322H92.06C91.0799 14.9239 90.1088 15.1207 89.2084 15.5099C88.3283 15.8911 87.5325 16.4443 86.8672 17.1374C86.2022 17.8301 85.672 18.6415 85.3037 19.5298C84.8416 20.6589 84.6574 21.8832 84.7666 23.0991C84.8758 24.3149 85.2753 25.4863 85.9311 26.514C86.587 27.5417 87.4799 28.3955 88.5341 29.0028C89.5883 29.6101 90.7728 29.9531 91.9871 30.0027H92.0762Z" fill="#5630DB"/>
<path d="M138.293 10.0009C139.917 9.987 141.526 10.3169 143.015 10.9693C144.452 11.6069 145.755 12.5126 146.855 13.6383C147.999 14.7976 148.903 16.1736 149.513 17.6865C150.124 19.1993 150.429 20.8189 150.412 22.4512V34.9422H145.624V22.4512C145.633 21.449 145.44 20.4554 145.057 19.5299C144.691 18.6405 144.16 17.8288 143.493 17.1375C142.817 16.441 142.008 15.8883 141.114 15.5123C140.221 15.1363 139.261 14.9445 138.293 14.9485C137.323 14.9405 136.362 15.1373 135.473 15.5262C133.71 16.302 132.318 17.7385 131.593 19.5299C131.214 20.4566 131.021 21.4494 131.026 22.4512V34.9422H126.23V22.4512C126.249 20.4679 125.486 18.5577 124.108 17.1375C123.444 16.4429 122.648 15.8894 121.766 15.51C120.862 15.1231 119.89 14.9237 118.907 14.924C117.937 14.9189 116.976 15.1185 116.088 15.51C115.215 15.8917 114.427 16.445 113.771 17.1375C113.106 17.8272 112.576 18.6359 112.207 19.5217C111.826 20.4477 111.633 21.441 111.64 22.443V34.9584H106.844V22.4512C106.826 20.025 107.515 17.6464 108.826 15.609C110.138 13.5715 112.014 11.9643 114.224 10.9856C115.701 10.3381 117.296 10.0083 118.907 10.0172C120.833 9.9914 122.735 10.4591 124.432 11.3761C126.085 12.2707 127.513 13.5346 128.604 15.0705C129.698 13.5288 131.135 12.264 132.8 11.3761C134.489 10.4673 136.376 9.99468 138.293 10.0009Z" fill="#5630DB"/>
<path d="M165.277 10.0009C166.899 9.99106 168.504 10.3209 169.992 10.9693C172.197 11.9565 174.067 13.569 175.372 15.6087C176.677 17.6484 177.361 20.0266 177.34 22.4512V34.9422H165.277C163.666 34.9511 162.071 34.6213 160.595 33.9738C159.14 33.3359 157.823 32.4213 156.714 31.2804C155.594 30.1284 154.704 28.7723 154.09 27.2848C152.826 24.179 152.826 20.699 154.09 17.5932C154.694 16.1191 155.58 14.7783 156.698 13.6465C157.817 12.5194 159.14 11.6164 160.595 10.9856C162.071 10.336 163.665 10.0007 165.277 10.0009ZM172.568 30.0353V22.4512C172.577 21.449 172.384 20.4554 172.001 19.5299C171.635 18.6405 171.104 17.8288 170.438 17.1375C169.778 16.4483 168.991 15.8955 168.121 15.51C167.229 15.1202 166.266 14.9233 165.293 14.9322C164.326 14.9285 163.368 15.1203 162.475 15.4964C161.583 15.8725 160.776 16.425 160.101 17.1212C159.431 17.8104 158.9 18.6227 158.537 19.5136C158.158 20.4403 157.966 21.4331 157.97 22.4349C157.966 23.4419 158.159 24.44 158.537 25.3726C158.895 26.2811 159.426 27.1104 160.101 27.8138C160.775 28.5111 161.583 29.0649 162.475 29.4423C163.367 29.8198 164.325 30.0131 165.293 30.0109L172.568 30.0353Z" fill="#5630DB"/>
<path d="M204 10.0579V32.5009C204.02 34.1764 203.697 35.8381 203.052 37.3834C202.448 38.8643 201.574 40.2192 200.476 41.3788C199.396 42.5121 198.105 43.4216 196.677 44.056C195.193 44.7082 193.589 45.0382 191.97 45.0244H189.54V40.085H191.97C193.418 40.0789 194.832 39.6358 196.026 38.8131C197.221 37.9904 198.142 36.826 198.67 35.471C199.035 34.5334 199.212 33.5321 199.188 32.5253V32.4683C198.178 33.2836 197.039 33.9219 195.818 34.3562C193.035 35.3336 189.988 35.2262 187.28 34.0551C184.335 32.7535 182.011 30.3516 180.799 27.3581C180.162 25.8274 179.839 24.1833 179.851 22.5244V10.0579H184.647V22.5081C184.61 24.4716 185.35 26.3695 186.705 27.7853C188.06 29.2011 189.918 30.0191 191.873 30.0597H191.97C192.942 30.0679 193.905 29.871 194.797 29.4819C196.127 28.8732 197.252 27.8906 198.037 26.6529C198.822 25.4153 199.233 23.9756 199.22 22.5081V10.0579H204Z" fill="#5630DB"/>
</g>
<defs>
<clipPath id="clip0_75_569">
<rect width="204" height="45" fill="white"/>
</clipPath>
</defs>
</svg>
