<svg width="32" height="32" viewBox="0 0 32 32" fill="none" xmlns="http://www.w3.org/2000/svg">
<path d="M15.9999 0.639893C7.51669 0.639893 0.639893 7.51669 0.639893 15.9999C0.639893 24.4831 7.51669 31.3599 15.9999 31.3599C24.4831 31.3599 31.3599 24.4831 31.3599 15.9999C31.3599 7.51669 24.4831 0.639893 15.9999 0.639893ZM22.2479 13.2223C22.2543 13.3535 22.2559 13.4847 22.2559 13.6127C22.2559 17.6127 19.2143 22.2223 13.6495 22.2223C12.0052 22.225 10.395 21.7528 9.01269 20.8623C9.24789 20.8911 9.48949 20.9023 9.73429 20.9023C11.1519 20.9023 12.4559 20.4207 13.4911 19.6079C12.8602 19.5955 12.249 19.3866 11.7425 19.0103C11.236 18.634 10.8595 18.1091 10.6655 17.5087C11.1185 17.5948 11.5853 17.5768 12.0303 17.4559C11.3456 17.3174 10.7298 16.9464 10.2874 16.4058C9.84504 15.8651 9.60326 15.1881 9.60309 14.4895V14.4527C10.0111 14.6783 10.4783 14.8159 10.9743 14.8319C10.3324 14.4046 9.87795 13.7482 9.70396 12.9969C9.52998 12.2456 9.64957 11.4563 10.0383 10.7903C10.7982 11.7247 11.7459 12.4891 12.82 13.034C13.8941 13.5789 15.0706 13.8922 16.2735 13.9535C16.1206 13.3044 16.1864 12.6229 16.4607 12.0151C16.735 11.4073 17.2025 10.9071 17.7904 10.5923C18.3783 10.2776 19.0538 10.1658 19.7117 10.2746C20.3697 10.3833 20.9733 10.7063 21.4287 11.1935C22.1058 11.0595 22.7551 10.8112 23.3487 10.4591C23.123 11.1601 22.6506 11.7554 22.0191 12.1343C22.6188 12.0621 23.2045 11.9008 23.7567 11.6559C23.3511 12.2637 22.8401 12.7942 22.2479 13.2223Z" fill="white"/>
</svg>
