<svg width="32" height="32" viewBox="0 0 32 32" fill="none" xmlns="http://www.w3.org/2000/svg">
<path d="M15.9999 0.639893C7.51669 0.639893 0.639893 7.51669 0.639893 15.9999C0.639893 24.4831 7.51669 31.3599 15.9999 31.3599C24.4831 31.3599 31.3599 24.4831 31.3599 15.9999C31.3599 7.51669 24.4831 0.639893 15.9999 0.639893ZM12.2399 22.3663H9.12949V12.3567H12.2399V22.3663ZM10.6655 11.1279C9.68309 11.1279 9.04789 10.4319 9.04789 9.57109C9.04789 8.69269 9.70229 8.01749 10.7055 8.01749C11.7087 8.01749 12.3231 8.69269 12.3423 9.57109C12.3423 10.4319 11.7087 11.1279 10.6655 11.1279ZM23.5999 22.3663H20.4895V16.8191C20.4895 15.5279 20.0383 14.6511 18.9135 14.6511C18.0543 14.6511 17.5439 15.2447 17.3183 15.8159C17.2351 16.0191 17.2143 16.3071 17.2143 16.5935V22.3647H14.1023V15.5487C14.1023 14.2991 14.0623 13.2543 14.0207 12.3551H16.7231L16.8655 13.7455H16.9279C17.3375 13.0927 18.3407 12.1295 20.0191 12.1295C22.0655 12.1295 23.5999 13.5007 23.5999 16.4479V22.3663Z" fill="white"/>
</svg>
