<svg width="32" height="32" viewBox="0 0 32 32" fill="none" xmlns="http://www.w3.org/2000/svg">
<path d="M20.7999 15.9999C20.7999 17.2729 20.2942 18.4938 19.394 19.394C18.4938 20.2942 17.2729 20.7999 15.9999 20.7999C14.7269 20.7999 13.506 20.2942 12.6058 19.394C11.7056 18.4938 11.1999 17.2729 11.1999 15.9999C11.1999 15.7263 11.2287 15.4591 11.2783 15.1999H9.59989V21.5951C9.59989 22.0399 9.95989 22.3999 10.4047 22.3999H21.5967C21.8099 22.3995 22.0142 22.3145 22.1647 22.1636C22.3153 22.0127 22.3999 21.8083 22.3999 21.5951V15.1999H20.7215C20.7711 15.4591 20.7999 15.7263 20.7999 15.9999ZM15.9999 19.1999C16.4202 19.1998 16.8364 19.1169 17.2247 18.9559C17.613 18.795 17.9658 18.5591 18.263 18.2618C18.5601 17.9645 18.7958 17.6116 18.9566 17.2232C19.1173 16.8349 19.2 16.4186 19.1999 15.9983C19.1998 15.578 19.1169 15.1618 18.9559 14.7735C18.795 14.3852 18.5591 14.0324 18.2618 13.7352C17.9645 13.4381 17.6116 13.2024 17.2232 13.0416C16.8349 12.8809 16.4186 12.7982 15.9983 12.7983C15.1494 12.7985 14.3353 13.1359 13.7352 13.7364C13.1351 14.3368 12.7981 15.151 12.7983 15.9999C12.7985 16.8488 13.1359 17.6629 13.7364 18.263C14.3368 18.8631 15.151 19.2001 15.9999 19.1999ZM19.8399 12.6399H21.7583C21.8857 12.6399 22.008 12.5894 22.0983 12.4994C22.1885 12.4094 22.2395 12.2873 22.2399 12.1599V10.2415C22.2399 10.1138 22.1892 9.99127 22.0988 9.90095C22.0085 9.81063 21.886 9.75989 21.7583 9.75989H19.8399C19.7122 9.75989 19.5897 9.81063 19.4993 9.90095C19.409 9.99127 19.3583 10.1138 19.3583 10.2415V12.1599C19.3599 12.4239 19.5759 12.6399 19.8399 12.6399ZM15.9999 0.639893C11.9262 0.639893 8.01929 2.25817 5.13873 5.13873C2.25817 8.01929 0.639893 11.9262 0.639893 15.9999C0.639893 20.0736 2.25817 23.9805 5.13873 26.8611C8.01929 29.7416 11.9262 31.3599 15.9999 31.3599C18.017 31.3599 20.0144 30.9626 21.8779 30.1907C23.7415 29.4188 25.4347 28.2874 26.8611 26.8611C28.2874 25.4347 29.4188 23.7415 30.1907 21.8779C30.9626 20.0144 31.3599 18.017 31.3599 15.9999C31.3599 13.9828 30.9626 11.9854 30.1907 10.1219C29.4188 8.25831 28.2874 6.56504 26.8611 5.13873C25.4347 3.71242 23.7415 2.58102 21.8779 1.8091C20.0144 1.03719 18.017 0.639893 15.9999 0.639893ZM23.9999 22.2223C23.9999 23.1999 23.1999 23.9999 22.2223 23.9999H9.77749C8.79989 23.9999 7.99989 23.1999 7.99989 22.2223V9.77749C7.99989 8.79989 8.79989 7.99989 9.77749 7.99989H22.2223C23.1999 7.99989 23.9999 8.79989 23.9999 9.77749V22.2223Z" fill="white"/>
</svg>
